<svg width="24" height="24" viewBox="0 0 24 24" fill="none" xmlns="http://www.w3.org/2000/svg">
<path d="M19.8283 3.85737C17.6563 1.69343 14.7653 0.506598 11.6997 0.515598C8.63405 0.524599 5.75007 1.72838 3.59082 3.90505C1.43158 6.08171 0.240049 8.96803 0.24905 12.0336C0.258051 15.0993 1.46184 17.9832 3.6385 20.1425C5.81516 22.3017 8.70148 23.4933 11.7671 23.4842C14.8327 23.4752 17.7167 22.2715 19.8759 20.0948C22.0352 17.9181 23.2267 15.0318 23.2177 11.9662C23.2087 8.90059 22.0049 6.01662 19.8283 3.85737V3.85737ZM22.1756 11.4536L17.7225 11.4667C17.6751 9.69497 17.4216 7.98946 16.9812 6.47668C17.8284 6.03825 18.619 5.48749 19.3436 4.83849C20.9894 6.58679 22.0415 8.89933 22.1756 11.4536ZM12.2505 12.514L16.6989 12.501C16.6662 14.1323 16.4458 15.6939 16.0608 17.0919C14.8594 16.6126 13.5789 16.3351 12.2616 16.2781L12.2505 12.514V12.514ZM18.6009 4.12348C18.0025 4.65492 17.3475 5.10685 16.6549 5.48388C16.4753 4.98753 16.2724 4.51938 16.0461 4.07942C15.5982 3.19948 15.0898 2.47909 14.5304 1.92761C16.0551 2.34969 17.4401 3.10969 18.6009 4.12348ZM12.2188 1.7047C13.2929 1.94061 14.3083 2.9267 15.1287 4.5368C15.3503 4.97209 15.5485 5.43557 15.7234 5.92725C14.6232 6.38517 13.4474 6.65581 12.2335 6.72031L12.2188 1.7047ZM16.0357 6.9154C16.4241 8.30176 16.649 9.85267 16.6912 11.4744L12.2475 11.4875L12.2365 7.75624C13.5582 7.69142 14.8371 7.40173 16.0357 6.9154V6.9154ZM11.2162 11.4858L6.76782 11.4989C6.80056 9.8769 7.01632 8.32469 7.39661 6.93607C8.59804 7.42005 9.88324 7.69753 11.2006 7.74991L11.2116 11.4858L11.2162 11.4858ZM11.1922 1.70772L11.2069 6.72332C9.99271 6.66595 8.81068 6.40223 7.71247 5.95077C7.88447 5.45807 8.07998 4.99343 8.29901 4.55685C9.1099 2.94196 10.1195 1.94993 11.1922 1.70772V1.70772ZM8.88197 1.94419C8.32578 2.49895 7.82166 3.227 7.37893 4.10486C7.15991 4.54613 6.95972 5.01547 6.77837 5.51288C6.08352 5.13992 5.43064 4.69183 4.8244 4.16392C5.97922 3.14334 7.35979 2.37522 8.88197 1.94419ZM4.08589 4.88328C4.81434 5.52802 5.60813 6.06944 6.45785 6.50758C6.02638 8.0276 5.77825 9.7299 5.74595 11.5019L1.29284 11.515C1.41191 8.9599 2.45042 6.64122 4.08589 4.88328V4.88328ZM1.29587 12.5462L5.74898 12.5331C5.79641 14.3189 6.05456 16.0291 6.49965 17.5513C5.65719 17.9897 4.86658 18.5311 4.14661 19.18C2.48677 17.4271 1.42996 15.1099 1.29587 12.5462V12.5462ZM4.88934 19.8951C5.48779 19.3683 6.13803 18.9164 6.82601 18.544C7.00555 19.0263 7.20378 19.4898 7.42536 19.9204C7.87326 20.8004 8.38163 21.5207 8.94107 22.0769C7.42577 21.6548 6.04542 20.8995 4.88934 19.8951ZM11.2527 22.2951C10.1785 22.0592 9.16313 21.0731 8.34277 19.463C8.1259 19.0371 7.93237 18.583 7.75752 18.1007C8.85306 17.6428 10.0288 17.3721 11.238 17.3123L11.2527 22.2951V22.2951ZM7.44057 17.1172C7.04741 15.7215 6.81782 14.1612 6.77554 12.5301L11.224 12.517L11.235 16.2811C9.91799 16.3412 8.63913 16.6262 7.44057 17.1172ZM12.2839 22.2921L12.2693 17.3093C13.4788 17.3667 14.6562 17.6257 15.7544 18.0772C15.5823 18.5605 15.3915 19.0158 15.1771 19.443C14.3662 21.0579 13.3566 22.0499 12.2839 22.2921V22.2921ZM14.5942 22.0556C15.1503 21.5009 15.6545 20.7728 16.0972 19.8903C16.3162 19.4584 16.5117 18.9937 16.6884 18.5104C17.3786 18.8787 18.0315 19.3268 18.633 19.85C17.4829 20.8659 16.107 21.6293 14.5942 22.0556V22.0556ZM19.3762 19.1353C18.6525 18.4953 17.8587 17.9538 17.0137 17.5204C17.4498 15.9957 17.6979 14.2793 17.7349 12.4979L22.188 12.4849C22.0642 15.0493 21.0211 17.3727 19.3762 19.1353V19.1353Z" fill="white"/>
</svg>
